<?xml version="1.0" standalone="no"?><!DOCTYPE svg PUBLIC "-//W3C//DTD SVG 1.1//EN" "http://www.w3.org/Graphics/SVG/1.1/DTD/svg11.dtd"><svg t="1660020812054" class="icon" viewBox="0 0 1024 1024" version="1.1" xmlns="http://www.w3.org/2000/svg" p-id="4578" xmlns:xlink="http://www.w3.org/1999/xlink" width="200" height="200"><defs><style type="text/css">@font-face { font-family: feedback-iconfont; src: url("//at.alicdn.com/t/font_1031158_u69w8yhxdu.woff2?t=1630033759944") format("woff2"), url("//at.alicdn.com/t/font_1031158_u69w8yhxdu.woff?t=1630033759944") format("woff"), url("//at.alicdn.com/t/font_1031158_u69w8yhxdu.ttf?t=1630033759944") format("truetype"); }
</style></defs><path d="M872.6 762.7L547 512l325.7-250.7c5.5-4.2 8.6-10.9 8.3-17.8-0.3-6.9-4-13.3-9.8-17L523.5 3.4c-6.6-4.2-14.9-4.5-21.8-0.8-6.8 3.7-11.1 10.9-11.1 18.7v447.3L177.4 227.5c-9.3-7.2-22.7-5.4-29.9 3.9-7.2 9.3-5.4 22.7 3.9 29.9L477 512 151.4 762.7c-9.3 7.2-11.1 20.6-3.9 29.9 7.2 9.3 20.6 11.1 29.9 3.9l313.3-241.2v447.3c0 7.8 4.3 15 11.1 18.7 3.2 1.7 6.7 2.6 10.2 2.6 4 0 8-1.1 11.5-3.4l347.6-223c5.8-3.8 9.5-10.1 9.8-17 0.3-6.9-2.7-13.5-8.3-17.8zM533.3 60.4L822.6 246 533.3 468.7V60.4z m0 903.2V555.4l289.3 222.7-289.3 185.5z" fill="" p-id="4579"></path></svg>