<?xml version="1.0" standalone="no"?><!DOCTYPE svg PUBLIC "-//W3C//DTD SVG 1.1//EN" "http://www.w3.org/Graphics/SVG/1.1/DTD/svg11.dtd"><svg t="1660031488967" class="icon" viewBox="0 0 1024 1024" version="1.1" xmlns="http://www.w3.org/2000/svg" p-id="12203" xmlns:xlink="http://www.w3.org/1999/xlink" width="200" height="200"><defs><style type="text/css">@font-face { font-family: feedback-iconfont; src: url("//at.alicdn.com/t/font_1031158_u69w8yhxdu.woff2?t=1630033759944") format("woff2"), url("//at.alicdn.com/t/font_1031158_u69w8yhxdu.woff?t=1630033759944") format("woff"), url("//at.alicdn.com/t/font_1031158_u69w8yhxdu.ttf?t=1630033759944") format("truetype"); }
</style></defs><path d="M765.2 826.612c-94.452 25.2-199.964-56.336-255.72-215.228-55.42 159.444-160.8 241.34-255.132 216.112-102.46-27.408-153-170.776-102.668-358.296s166.944-290.308 269.404-262.9c36.8 9.844 66.724 35.2 87.692 72.296 21.088-38.096 51.496-64.144 89.028-74.16 102.864-27.452 219.94 75.5 270.472 263.32s-0.228 331.408-103.076 358.856z m65.164-351.668c-45.2-167.6-141.868-255.484-233.848-230.988C562.94 252.892 530.86 306 512 340c-18.748-33.088-64.612-85.6-97.52-94.38-91.6-24.456-179.892 63.272-224.896 230.616S181.772 767.52 273.388 792c84.336 22.492 158.06-88 238.612-216 64 113.096 145.724 237.684 230.18 215.2 91.98-24.504 133.352-148.648 88.168-316.256z" fill="#8A74FB" p-id="12204"></path><path d="M630.736 543.792C611.812 579.072 565.812 604 512 604s-99.804-24.924-118.728-60.204a15.968 15.968 0 1 1 25.532-17.824l0.932-0.304C431.24 552.4 468.18 572 512 572c43.728 0 80.6-19.496 92.192-46.156l0.948 0.304a15.972 15.972 0 1 1 25.596 17.644z m-48.632-134.068a19.852 19.852 0 0 1-2.8 2.276h-22.464a19.624 19.624 0 0 1-2.8-2.276l-41.824-41.904-42.192 42.24a20.032 20.032 0 0 1-2.372 1.94h-23.468a19.748 19.748 0 0 1-2.376-1.94 20 20 0 0 1 0-28.248l50.316-50.376V147.936a19.94 19.94 0 0 1 39.876 0v183.56l50.104 50.16a19.864 19.864 0 0 1 0 28.068z" fill="#7FE6F9" p-id="12205"></path></svg>