<?xml version="1.0" standalone="no"?><!DOCTYPE svg PUBLIC "-//W3C//DTD SVG 1.1//EN" "http://www.w3.org/Graphics/SVG/1.1/DTD/svg11.dtd"><svg t="1660031597905" class="icon" viewBox="0 0 1024 1024" version="1.1" xmlns="http://www.w3.org/2000/svg" p-id="15153" xmlns:xlink="http://www.w3.org/1999/xlink" width="200" height="200"><defs><style type="text/css">@font-face { font-family: feedback-iconfont; src: url("//at.alicdn.com/t/font_1031158_u69w8yhxdu.woff2?t=1630033759944") format("woff2"), url("//at.alicdn.com/t/font_1031158_u69w8yhxdu.woff?t=1630033759944") format("woff"), url("//at.alicdn.com/t/font_1031158_u69w8yhxdu.ttf?t=1630033759944") format("truetype"); }
</style></defs><path d="M977.78 508.34h-48.49c48.69-104.94 30.84-235.11-53.25-321.2-52.26-53.51-121.78-82.98-195.81-82.98-61.43 0-120.06 20.44-168.13 58.1l-0.2-0.17-3.11-2.69-0.16 0.19c-47.42-35.97-104.71-55.43-164.67-55.43-74 0-143.54 29.46-195.82 82.98-87.63 89.71-103.24 227.27-46.65 334.28H46.42c-18.96 0-34.32 15.36-34.32 34.32s15.36 34.32 34.32 34.32h105.73l295.72 302.76c16.73 17.32 40.13 27.25 64.23 27.25 24.08 0 47.48-9.93 64.1-27.12L879.34 582.6l5.44-5.61h93c18.96 0 34.32-15.36 34.32-34.32s-15.36-34.33-34.32-34.33zM197.26 235.11c39.25-40.18 91.35-62.3 146.71-62.3 53.92 0 105.05 21.12 143.95 59.47l26.02 25.47 22.1-25.25 0.25-0.23c38.89-38.35 90.02-59.46 143.94-59.46 55.37 0 107.46 22.12 146.69 62.3 71.99 73.69 80 189.87 23.76 273.23H686.63l-51.34-73.79c-8.63-12.41-23.33-19.45-38.41-18.17-15.08 1.21-28.5 10.44-35.04 24.1l-57.63 120.5-51.24-115.28c-6.08-13.72-19.11-23.33-34.01-25.07-15.04-1.72-29.81 4.61-38.89 16.55l-64.02 84.24H182.96c-66.46-83.88-61.5-208.69 14.3-286.31z m329.7 610.03c-7.73 8-21.87 8.15-29.84-0.12l-249-254.94h80.84c13.22 0 25.9-6.28 33.94-16.84l45.19-59.47 56.31 126.68c6.74 15.13 21.8 25.05 38.36 25.28h0.58c16.33 0 31.38-9.45 38.46-24.23l62.67-131.05 33.56 48.24a42.649 42.649 0 0 0 35 18.3h115.68L526.96 845.14z" fill="#666666" p-id="15154"></path></svg>