<?xml version="1.0" standalone="no"?><!DOCTYPE svg PUBLIC "-//W3C//DTD SVG 1.1//EN" "http://www.w3.org/Graphics/SVG/1.1/DTD/svg11.dtd"><svg t="1660105725325" class="icon" viewBox="0 0 1024 1024" version="1.1" xmlns="http://www.w3.org/2000/svg" p-id="5946" xmlns:xlink="http://www.w3.org/1999/xlink" width="200" height="200"><defs><style type="text/css">@font-face { font-family: feedback-iconfont; src: url("//at.alicdn.com/t/font_1031158_u69w8yhxdu.woff2?t=1630033759944") format("woff2"), url("//at.alicdn.com/t/font_1031158_u69w8yhxdu.woff?t=1630033759944") format("woff"), url("//at.alicdn.com/t/font_1031158_u69w8yhxdu.ttf?t=1630033759944") format("truetype"); }
</style></defs><path d="M800.1 359.1c-7.9-20-16.5-39.3-26-58.1-9.5-18.7-20-36.8-31.8-53.8-5.9-8.6-12.1-16.8-18.8-24.7-3.2-4.1-6.8-7.8-10.2-11.7l-5.4-5.6c-1.7-1.9-3.6-3.7-5.5-5.5-14.8-14.7-31.5-27.4-49.4-39.3 2.6 0.7 5.1 1.6 7.7 2.4l3.9 1.3 3.8 1.5c2.5 1 5 2.1 7.5 3.2l7.3 3.7c1.2 0.6 2.4 1.2 3.6 1.9l3.5 2.1 3.5 2.1c1.2 0.7 2.4 1.4 3.5 2.2 4.5 3.1 9.1 6.1 13.4 9.6 4.4 3.3 8.4 7 12.6 10.6 4 3.8 7.9 7.6 11.6 11.7 3.8 4 7.2 8.3 10.8 12.4 3.3 4.4 6.7 8.7 9.8 13.2 12.5 18 22.5 37.6 30.2 57.9 3.8 10.2 7 20.6 9.5 31.1 1.2 5.3 2.4 10.6 3.2 15.9 0.8 5.1 1.5 10.5 1.7 15.9z" fill="#FFD84D" p-id="5947"></path><path d="M526.5 753.1c-19.1 0-35.3-9.8-48.4-29.1-9.6-14.1-17.5-33.3-24.1-58.7l-2.6-10h149.8L599 665c-8.9 40.7-33.3 88.1-72.5 88.1z m-54.2-81.7c13.1 44.2 30.9 65.7 54.2 65.7 28.3 0 46.5-37.7 54.5-65.7H472.3zM481.6 565.6c-1-3.9-2.4-7.6-4-11.4-3.2-7.4-7.5-14.5-13-20.8s-12.3-11.8-20.2-15.6c-3.9-1.9-8.1-3.4-12.4-4.4s-8.7-1.4-13.1-1.5c-4.3 0-8.7 0.5-13 1.4s-8.5 2.3-12.5 4.2c-8 3.7-14.9 9.3-20.4 15.7-4.7 5.6-8.4 11.8-11.3 18.2-0.7-1.2-1.4-2.3-2.2-3.4-1.3-1.6-2.9-2.9-4.7-3.9-1.8-1-3.7-1.8-5.6-2.7s-3.8-1.6-5.8-2.3c-2-0.6-4.1-1-6.2-1.1s-4.3 0-6.3 0.6c-1 0.3-2 0.7-2.9 1.3s-1.7 1.2-2.4 2l0.6 0.8c3.4-1.6 6.9-1 10 0.2 1.6 0.6 3.1 1.4 4.5 2.3 1.5 0.9 2.9 1.9 4.2 3 1.3 1 2.4 2.3 3.5 3.6h-0.2c-2.9-0.7-6-1-9-0.5-1.5 0.3-3.1 0.8-4.4 1.5-1.4 0.8-2.5 1.9-3.2 3.2l0.7 0.7c2.3-1.2 4.6-1.1 6.8-0.4 2.2 0.7 4.3 1.7 6.3 2.9 0.2 0.2 0.5 0.3 0.7 0.5s0.5 0.4 0.7 0.6c0.4 0.4 0.9 0.8 1.3 1.2 0.9 0.8 1.8 1.4 3 1.8 1.1 0.4 2.4 0.7 3.8 0.9 0.6 0.1 1.3 0.1 2 0.2-0.1 0.4-0.3 0.9-0.4 1.3-1 3.8-1.9 7.7-2.4 11.6 4.3-6.6 8.5-13.1 13-19.1s9.4-11.5 14.7-16.1c2.7-2.3 5.5-4.4 8.3-6.1 2.9-1.7 5.9-3.3 9-4.4 3.1-1.2 6.3-2.1 9.6-2.6 3.3-0.6 6.6-0.9 10-0.8 3.3 0 6.6 0.3 9.8 0.9 3.2 0.6 6.4 1.5 9.5 2.8 3.1 1.2 6.1 2.8 9.1 4.6 1.5 0.9 2.9 1.9 4.3 2.9s2.8 2.1 4.2 3.2c5.5 4.5 10.5 9.9 15.1 15.8 4.7 5.9 8.8 12.3 12.8 19.1-0.1-4.1-0.9-8-1.9-11.9zM701.7 541.7c-0.9-0.5-1.9-1-2.9-1.3-2.1-0.6-4.2-0.7-6.3-0.6-2.1 0.1-4.2 0.6-6.2 1.1-2 0.6-3.9 1.4-5.8 2.3-1.8 0.9-3.8 1.7-5.6 2.7s-3.4 2.3-4.7 3.9c-1.1 1.4-2.1 3-2.8 4.6 0-0.1-0.1-0.2-0.1-0.3-3.2-7.4-7.5-14.5-13-20.8s-12.3-11.8-20.2-15.6c-3.9-1.9-8.1-3.4-12.4-4.4-4.3-1-8.7-1.4-13.1-1.5-4.3 0-8.7 0.5-13 1.4s-8.5 2.3-12.5 4.2c-8 3.7-14.9 9.3-20.4 15.7-5.4 6.4-9.5 13.6-12.6 21.1-1.5 3.7-2.8 7.5-3.8 11.3s-1.9 7.7-2.4 11.6c4.3-6.6 8.5-13.1 13-19.1s9.4-11.5 14.7-16.1c2.7-2.3 5.5-4.4 8.3-6.1 2.9-1.7 5.9-3.3 9-4.4 3.1-1.2 6.3-2.1 9.6-2.6 3.3-0.6 6.6-0.9 10-0.8 3.3 0 6.6 0.3 9.8 0.9 3.2 0.6 6.4 1.5 9.5 2.8 3.1 1.2 6.1 2.8 9.1 4.6 1.5 0.9 2.9 1.9 4.3 2.9s2.8 2.1 4.2 3.2c5.5 4.5 10.5 9.9 15.1 15.8 4.7 5.9 8.8 12.3 12.8 19.1-0.3-3.7-1-7.5-2-11.1 1.2 0 2.3-0.1 3.3-0.2 1.4-0.2 2.6-0.5 3.8-0.9s2.1-1 3-1.8c0.4-0.4 0.9-0.8 1.3-1.2 0.2-0.2 0.5-0.4 0.7-0.6 0.2-0.2 0.5-0.3 0.7-0.5 2-1.2 4.1-2.3 6.3-2.9 2.2-0.7 4.5-0.8 6.8 0.4l0.7-0.7c-0.7-1.3-1.8-2.4-3.2-3.2s-2.9-1.3-4.4-1.5c-3.1-0.5-6.2-0.2-9 0.5h-0.2c1.1-1.3 2.2-2.5 3.5-3.6s2.8-2.1 4.2-3 3-1.7 4.5-2.3c3.1-1.2 6.6-1.8 10-0.2l0.6-0.8c-0.6-0.7-1.3-1.4-2.2-2z m-31.6 19.2c-0.1 0.1-0.1 0.3-0.2 0.4 0-0.1-0.1-0.2-0.1-0.3 0.1 0 0.2 0 0.3-0.1z" fill="#00A29A" p-id="5948"></path><path d="M527.6 878l-15.5-0.1-15.5 0.1v-0.1l-459.5-1.3 28.7-26c21.4-19.4 34-46.6 34.9-75.2-8.8-17.9-13.2-37.7-12.6-57.6 0.3-10.3 1.9-20.7 4.9-30.8v-0.1l0.7-2.2c6.7-21.4 19.2-40.6 36.1-55.5 2.9-2.5 5.9-5 9-7.3-2.3-6.7-4.4-13.6-6.1-20.5l-0.5-1.9c-3.7-14.5-6.2-29.2-7.6-43.9-7-72.8 13.5-145 57.9-203.5 19.7-77.9 60-143.9 116.6-190.9 55-45.7 123-71.4 197.4-74.6v-0.3h31v0.4c74.4 3.2 142.4 28.8 197.4 74.6 56.6 47 96.9 113 116.6 190.9 44.4 58.5 65 130.7 57.9 203.6-1.4 14.6-3.9 29.3-7.6 43.8l-0.5 1.9c-1.8 6.9-3.9 13.8-6.2 20.5 3.1 2.3 6.2 4.7 9.1 7.3 16.8 14.8 29.3 34 36 55.4l0.7 2.3c3 10.1 4.6 20.5 4.9 30.9 0.6 19.9-3.8 39.7-12.6 57.6 1 28.6 13.6 55.8 34.9 75.2l28.7 26-459.5 1.3h0.3z m-15.5-30.1h0.5l403.4-1.2c-14.6-22.1-22.6-48.1-22.6-74.8v-3.8l1.8-3.4c7.6-14.2 11.4-30.2 10.9-46.1-0.2-8.4-1.7-16.8-4.2-25l-0.3-1.1c-5.2-15.8-14.5-29.9-26.9-40.9-4.6-4.1-9.6-7.7-14.9-10.8l-11.1-6.5 4.7-12c3.4-8.8 6.4-17.9 8.9-27.2l0.4-1.4c3.5-13.5 6-27.3 7.2-41 6.4-66.3-12.7-132-53.7-184.9l-2-2.5-0.8-3.1C776.2 210.8 661 116.5 512.7 116.1h-1c-148.3 0.4-263.6 94.7-300.7 246.1l-0.8 3.1-2 2.5c-41 52.9-60.1 118.6-53.7 184.8 1.3 13.7 3.7 27.5 7.2 41l0.5 1.9c2.4 9.1 5.4 18.1 8.8 26.7l4.7 12-11.1 6.5c-5.3 3.1-10.3 6.7-14.9 10.8-12.6 11.1-21.9 25.3-27.1 41.2l-0.3 0.8c-2.6 8.2-4 16.6-4.2 25-0.5 16 3.3 32 10.9 46.2l1.8 3.3v3.8c0 26.8-8 52.8-22.6 74.9l403.9 1.2z" fill="#00A29A" p-id="5949"></path><path d="M799.3 509.4c0.3-5.4 0.5-11 0.5-16.6 0-18.1-1.7-36-5-53.4 1.3-0.9 2.3-2.2 2.9-3.8 0.9-3.7-1.2-8.3-5.4-9.8l-4.9-1.8c-22.3-8.2-40.3-14.7-63.6-20l-20.3-152.5L678 396.6c-46.3-8.1-80.3-10.3-121-10.9L541.9 343l-20.4 43.1c-42.6 0.1-79.8 2.3-125.3 7.4l-14.9-119.3-22.6 124c-76.3 10.5-121.3 21.4-121.8 21.5-4.3 1-6.9 5.4-5.9 9.7 0.7 3.1 3.2 5.2 6 5.9-3.8 18.7-5.8 38-5.8 57.5 0 5.6 0.2 11.2 0.5 16.6-26.1 11.6-43.2 37.6-43.2 66.5 0 19 7.3 37.1 20.6 50.7 12 12.3 27.7 19.9 44.7 21.6 21.2 49.9 56 92.5 100.9 123.3 45.3 31.1 97.9 48.2 152.8 49.7v0.1h8c57.8 0 113.4-17.2 160.8-49.8 44.9-30.9 79.7-73.4 100.9-123.3 17-1.7 32.7-9.2 44.7-21.6 13.3-13.6 20.6-31.6 20.6-50.7 0-29-17.1-54.9-43.2-66.5z m-27.8 123.2l-5.2 0.1-2 4.9c-40.8 101-137.1 166.5-245.8 167.7h-2.9c-110 0-207.6-65.8-248.8-167.7l-2-4.9-5.2-0.1c-30.8-0.9-55-25.8-55-56.7 0-24.2 15.3-45.7 38.2-53.6l5.9-2-0.5-6.2c-0.6-6.8-0.9-14-0.9-21.2 0-20.8 2.4-41.1 6.9-60.6 19.2-4.1 58.1-11.7 112.4-19h0.1c0.2 0 0.4-0.1 0.6-0.1h0.2c0.2 0 0.4-0.1 0.5-0.2 0.1 0 0.1 0 0.2-0.1 0.2-0.1 0.4-0.1 0.5-0.2 0.1-0.1 0.3-0.1 0.4-0.2 0.1-0.1 0.2-0.1 0.4-0.2 0.1-0.1 0.2-0.1 0.3-0.2 0.1-0.1 0.2-0.1 0.3-0.2 0.1-0.1 0.2-0.1 0.3-0.2 0.1-0.1 0.2-0.2 0.3-0.2 0.1-0.1 0.2-0.1 0.2-0.2l0.3-0.3 0.2-0.2c0.1-0.1 0.2-0.2 0.3-0.4 0-0.1 0.1-0.1 0.1-0.2 0.1-0.1 0.2-0.3 0.3-0.5 0-0.1 0.1-0.1 0.1-0.1 0.1-0.2 0.2-0.4 0.3-0.5 0 0 0-0.1 0.1-0.1l0.3-0.6v-0.1c0.1-0.2 0.2-0.5 0.2-0.7 0-0.1 0.1-0.3 0.1-0.4 0-0.1 0-0.2 0.1-0.3v-0.1-0.1l5-27.2 3 23.8v0.1c0 0.2 0.1 0.4 0.1 0.6 0 0.1 0 0.2 0.1 0.2 0 0.2 0.1 0.3 0.1 0.5 0 0.1 0.1 0.2 0.1 0.3 0.1 0.2 0.1 0.3 0.2 0.5 0 0.1 0.1 0.2 0.1 0.3 0.1 0.1 0.1 0.3 0.2 0.4 0 0.1 0.1 0.2 0.1 0.2 0.1 0.1 0.2 0.3 0.3 0.4 0.1 0.1 0.1 0.2 0.2 0.2 0.1 0.1 0.2 0.2 0.3 0.4l0.2 0.2 0.3 0.3 0.2 0.2c0.1 0.1 0.2 0.2 0.4 0.3l0.2 0.2c0.1 0.1 0.3 0.2 0.4 0.3 0.1 0 0.1 0.1 0.2 0.1 0.2 0.1 0.3 0.2 0.5 0.3l0.1 0.1c0.2 0.1 0.4 0.2 0.7 0.3 0.5 0.2 1 0.3 1.5 0.4h0.2c0.2 0 0.4 0.1 0.6 0.1h1.8c50.2-5.9 89.8-8.3 136.3-8.2h0.1c0.3 0 0.6 0 0.9-0.1h0.3c0.3 0 0.5-0.1 0.8-0.2h0.2c0.3-0.1 0.6-0.2 1-0.3 0 0 0.1 0 0.1-0.1 0.3-0.1 0.5-0.3 0.8-0.4 0.1 0 0.1-0.1 0.2-0.1 0.3-0.2 0.5-0.4 0.8-0.6l0.1-0.1 0.6-0.6c0.1-0.1 0.1-0.2 0.2-0.2 0.2-0.2 0.4-0.5 0.6-0.8v-0.1c0.2-0.3 0.3-0.6 0.5-0.9 0 0 0-0.1 0.1-0.1l5.9-12.6 4 11.4s0 0.1 0.1 0.1c0.1 0.2 0.1 0.3 0.2 0.5 0 0.1 0.1 0.2 0.1 0.3 0.1 0.1 0.1 0.3 0.2 0.4 0.1 0.1 0.1 0.2 0.2 0.3 0.1 0.1 0.1 0.2 0.2 0.3 0.1 0.1 0.2 0.2 0.3 0.4 0.1 0.1 0.1 0.2 0.2 0.2l0.3 0.3 0.2 0.2 0.3 0.3c0.1 0.1 0.2 0.2 0.3 0.2 0.1 0.1 0.2 0.2 0.3 0.2 0.1 0.1 0.2 0.2 0.4 0.2 0.1 0.1 0.2 0.1 0.3 0.2 0.1 0.1 0.3 0.2 0.4 0.2 0.1 0 0.2 0.1 0.2 0.1 0.2 0.1 0.3 0.1 0.5 0.2 0.1 0 0.2 0.1 0.3 0.1 0.2 0.1 0.3 0.1 0.5 0.1 0.1 0 0.2 0.1 0.3 0.1s0.3 0.1 0.4 0.1c0.1 0 0.3 0 0.4 0.1h1.1c44.9 0.5 78.8 2.5 129 11.6 0.5 0.1 1 0.1 1.4 0.1h0.4c0.4 0.1 0.7 0.2 1.1 0.3 4.3 0.8 8.5-2.1 9.3-6.5l9-51 7.4 55.5v0.2c0 0.1 0 0.3 0.1 0.4 0 0.1 0.1 0.2 0.1 0.3s0.1 0.2 0.1 0.4c0 0.1 0.1 0.3 0.1 0.4 0 0.1 0.1 0.2 0.1 0.3 0.1 0.2 0.1 0.3 0.2 0.5 0 0.1 0.1 0.1 0.1 0.2 0.1 0.2 0.2 0.3 0.3 0.5l0.1 0.1c0.1 0.2 0.3 0.4 0.4 0.5l0.1 0.1c0.2 0.2 0.3 0.4 0.5 0.6l0.2 0.2c0.1 0.1 0.2 0.2 0.4 0.3 0.1 0.1 0.2 0.2 0.3 0.2 0.1 0.1 0.2 0.1 0.3 0.2 0.1 0.1 0.2 0.1 0.3 0.2 0.1 0.1 0.2 0.1 0.3 0.2 0.1 0.1 0.2 0.1 0.3 0.2 0.1 0.1 0.2 0.1 0.4 0.2 0.1 0 0.2 0.1 0.3 0.1 0.1 0.1 0.3 0.1 0.5 0.2 0.1 0 0.2 0.1 0.2 0.1 0.2 0.1 0.4 0.1 0.6 0.1h0.1c23.3 4.9 40.9 11.2 62.2 18.9 3.9 18.1 5.9 36.8 5.9 56 0 3.7-0.1 7.3-0.2 10.9l-0.2 13.6 0.2 3.2 4.8 1.7c22.8 7.9 38.2 29.4 38.2 53.6 0 30.9-24.1 55.8-55 56.7z" fill="#00A29A" p-id="5950"></path></svg>