<?xml version="1.0" standalone="no"?><!DOCTYPE svg PUBLIC "-//W3C//DTD SVG 1.1//EN" "http://www.w3.org/Graphics/SVG/1.1/DTD/svg11.dtd"><svg t="1660105708644" class="icon" viewBox="0 0 1024 1024" version="1.1" xmlns="http://www.w3.org/2000/svg" p-id="4897" xmlns:xlink="http://www.w3.org/1999/xlink" width="200" height="200"><defs><style type="text/css">@font-face { font-family: feedback-iconfont; src: url("//at.alicdn.com/t/font_1031158_u69w8yhxdu.woff2?t=1630033759944") format("woff2"), url("//at.alicdn.com/t/font_1031158_u69w8yhxdu.woff?t=1630033759944") format("woff"), url("//at.alicdn.com/t/font_1031158_u69w8yhxdu.ttf?t=1630033759944") format("truetype"); }
</style></defs><path d="M358.032 624.101a30.801 30.801 0 1 0 63.039 0 30.801 30.801 0 1 0-63.038 0z m262.99 0a30.801 30.801 0 1 0 63.037 0 30.801 30.801 0 1 0-63.037 0z m226.663-95.005c-0.045-4.295-0.15-8.621-0.363-12.993 0.133-2.305 0.268-4.625 0.407-6.967 0.378-6.357-0.679-13.249-2.849-20.492-13.886-107.69-80.21-226.507-234.402-257.258a68.878 68.878 0 0 0 2.94-19.874c0-41.821-37.568-75.724-83.91-75.724s-83.912 33.903-83.912 75.724a68.86 68.86 0 0 0 2.995 20.048c-172.024 35.076-236.31 182.03-237.282 298.37-24 17.796-39.005 46.12-39.005 77.406 0 39.933 24.435 75.057 60.84 89.588 34.625 219.769 49.248 160.392 49.248 134.317 0-11.919-5.146-45.876-6.574-87.158 13.104 24.085 29.74 46.427 49.67 66.358 54.44 54.44 126.82 84.42 203.808 84.42s149.37-29.98 203.808-84.42a291.336 291.336 0 0 0 34.072-40.95c-1.344 36.572-2.364 68.07-2.364 79.698 0 26.203 25.241-6.882 51.847-118.423 2.764-11.59 5.24-22.466 7.48-32.766 37.966-13.806 63.677-49.704 63.677-90.665 0-31.771-15.472-60.5-40.131-78.239z m-662.078 78.24c0-23.657 9.966-45.358 26.389-60.692 0.219 1.86 0.482 3.585 0.799 5.143l-0.006 0.01c6.465 50.727 12.43 93.471 17.918 129.408-27.278-14.076-45.1-42.222-45.1-73.869z m582.582 135.24c-47.387 82.949-136.716 138.982-238.893 138.982-114.103 0-212.184-69.879-253.723-169.083 1.255-58.505 12.952-123.566 55.943-160.625 46.229-39.85 68.721-105.324 79.592-155.71 10.06 44.267 32.988 97.67 85.256 109.898 88.687 20.747 127.991 21.788 168.505 22.453 19.19 0.315 100.625-3.07 108.812 78.843 0.001 0.001-2.985 69.876-5.492 135.24z m59.298-60.401c11.065-53.957 15.005-90.706 17.404-125.484 1.016-2.847 1.764-6.48 2.238-10.963 17.017 15.377 27.385 37.475 27.385 61.608-0.001 32.388-18.664 61.113-47.027 74.839z" p-id="4898"></path></svg>