<?xml version="1.0" standalone="no"?><!DOCTYPE svg PUBLIC "-//W3C//DTD SVG 1.1//EN" "http://www.w3.org/Graphics/SVG/1.1/DTD/svg11.dtd"><svg t="1660021220619" class="icon" viewBox="0 0 1024 1024" version="1.1" xmlns="http://www.w3.org/2000/svg" p-id="9904" xmlns:xlink="http://www.w3.org/1999/xlink" width="200" height="200"><defs><style type="text/css">@font-face { font-family: feedback-iconfont; src: url("//at.alicdn.com/t/font_1031158_u69w8yhxdu.woff2?t=1630033759944") format("woff2"), url("//at.alicdn.com/t/font_1031158_u69w8yhxdu.woff?t=1630033759944") format("woff"), url("//at.alicdn.com/t/font_1031158_u69w8yhxdu.ttf?t=1630033759944") format("truetype"); }
</style></defs><path d="M854 512.9c-20.9 0-37.7 16.9-37.7 37.7v240.6c0 85.6-69.6 155.2-155.2 155.2H362.9c-85.6 0-155.2-69.6-155.2-155.2V550.6c0-20.9-16.9-37.7-37.7-37.7s-37.7 16.9-37.7 37.7v240.6c0 127.2 103.5 230.7 230.7 230.7h298.1c127.2 0 230.7-103.5 230.7-230.7V550.6c0-20.8-16.9-37.7-37.8-37.7zM1012.2 430L596.7 35.9c-47.5-45.1-121.9-45.1-169.5 0L11.8 430c-15.1 14.3-15.8 38.2-1.4 53.4 14.4 15.1 38.2 15.8 53.4 1.4L479.2 90.6c18.4-17.4 47.2-17.4 65.5 0l415.5 394.1c7.3 6.9 16.6 10.4 26 10.4 10 0 20-4 27.4-11.8 14.4-15.1 13.8-39-1.4-53.3z" fill="#707070" p-id="9905"></path></svg>