<?xml version="1.0" standalone="no"?><!DOCTYPE svg PUBLIC "-//W3C//DTD SVG 1.1//EN" "http://www.w3.org/Graphics/SVG/1.1/DTD/svg11.dtd"><svg t="1660105672583" class="icon" viewBox="0 0 1024 1024" version="1.1" xmlns="http://www.w3.org/2000/svg" p-id="3947" xmlns:xlink="http://www.w3.org/1999/xlink" width="200" height="200"><defs><style type="text/css">@font-face { font-family: feedback-iconfont; src: url("//at.alicdn.com/t/font_1031158_u69w8yhxdu.woff2?t=1630033759944") format("woff2"), url("//at.alicdn.com/t/font_1031158_u69w8yhxdu.woff?t=1630033759944") format("woff"), url("//at.alicdn.com/t/font_1031158_u69w8yhxdu.ttf?t=1630033759944") format("truetype"); }
</style></defs><path d="M536 153.7c2.9-10 3.4-16.2 2.5-23.3-1.4-11.8-11.3-31.1-23.5-32.1 2.7-0.4 5.4-1 8.2-0.7 21.6 2.8 42.2 23 48.3 33.5 0 0 10.8 17.7 13.1 31.9 3-5 10.7-19 15.1-25.2 12.9-18.6 41.5-23.6 51-25.5-8.2 6.3-18.7 40-18.7 40" fill="#FFD863" p-id="3948"></path><path d="M316.8 638.3c0.8-4.5 1.8-9 3.1-13.4s2.9-8.8 4.7-13.1c3.7-8.6 8.5-16.9 14.9-24.3 6.3-7.4 14.4-13.7 23.6-18 4.6-2.1 9.5-3.7 14.4-4.7 5-1 10-1.5 15-1.5 5.1 0 10.1 0.6 15.1 1.7 4.9 1.2 9.8 2.8 14.3 5 9.1 4.4 17 10.6 23.5 17.9 6.5 7.2 11.6 15.4 15.5 23.9 1.9 4.3 3.6 8.7 4.9 13.1 1.3 4.5 2.3 9 2.8 13.6-4.4-8.1-9.1-15.7-14.5-22.7-5.3-7-11.1-13.5-17.5-18.9-1.6-1.4-3.2-2.7-4.9-3.9-1.7-1.2-3.4-2.4-5.1-3.5-3.5-2.1-7.1-4.1-10.8-5.5-3.7-1.5-7.5-2.7-11.4-3.4-3.9-0.8-7.8-1.1-11.8-1.1-4.1 0-8.1 0.3-12 1s-7.7 1.8-11.5 3.2c-3.7 1.4-7.3 3.3-10.7 5.4-3.4 2.2-6.7 4.7-9.9 7.4-6.3 5.5-11.9 12.2-17.1 19.3-5.2 6.9-9.8 14.6-14.6 22.5zM518.7 832.9c-21.8 0-40.5-11.3-55.6-33.4-11.1-16.4-20.3-38.8-28-68.3l-2.6-10h172.1l-2.2 9.7c-10.4 47-38.6 102-83.7 102z m-65.4-95.8c15.6 53.7 37.1 79.8 65.4 79.8 34.6 0 56.4-46.4 65.6-79.8h-131zM539 638.3c0.8-4.5 1.8-9 3.1-13.4s2.9-8.8 4.7-13.1c3.7-8.6 8.5-16.9 14.9-24.3 6.3-7.4 14.4-13.7 23.6-18 4.6-2.1 9.5-3.7 14.4-4.7 5-1 10-1.5 15-1.5 5.1 0 10.1 0.6 15.1 1.7 4.9 1.2 9.8 2.8 14.3 5 9.1 4.4 17 10.6 23.5 17.9 6.5 7.2 11.6 15.4 15.5 23.9 1.9 4.3 3.6 8.7 4.9 13.1 1.3 4.5 2.3 9 2.8 13.6-4.4-8.1-9.1-15.7-14.5-22.7-5.3-7-11.1-13.5-17.5-18.9-1.6-1.4-3.2-2.7-4.9-3.9s-3.4-2.4-5.1-3.5c-3.5-2.1-7.1-4.1-10.8-5.5-3.7-1.5-7.5-2.7-11.4-3.4-3.9-0.8-7.8-1.1-11.8-1.1-4.1 0-8.1 0.3-12 1s-7.7 1.8-11.5 3.2c-3.7 1.4-7.3 3.3-10.7 5.4-3.4 2.2-6.7 4.7-9.9 7.4-6.3 5.5-11.9 12.2-17.1 19.3-5.1 6.9-9.8 14.6-14.6 22.5z" fill="#00A29A" p-id="3949"></path><path d="M878 556.2c0.4-0.8 0.7-1.5 0.9-2.4 14.3-50.3 16.5-103.3 6.5-157.4-9.2-49.5-28.6-98.1-56.1-140.4-43.7-67.1-103-112.6-165-127.4 4.2-10.4 8.5-19.1 10.9-21.4l30-27.9-40.9 2c-20.1 1-42.3 11.1-57.4 19.4-0.6 0.4-9.4 5.2-18 11-3.8-5.1-7.1-8.4-7.7-9l-0.5-0.5-0.5-0.4c-18.6-15.5-38.5-24.5-70.9-32.1l-39.1-9.1 23.5 32.5c6.3 8.6 10.7 17 13.4 24-26.1-1-58.1 2.1-63.1 2.6-67.6 5.9-132.6 29.8-188 69.1l-0.5 0.4-0.5 0.4c-87 73.5-136.9 180.9-136.9 294.7 0 15.9 5.4 43.1 17.3 69.5-11.7 15.4-18.4 34.5-18.4 54.8 0 23.8 9.1 46.4 25.7 63.4 14.3 14.6 32.7 23.9 52.6 26.6 25.3 58.2 66.3 107.8 118.9 143.9 52.4 36 113.2 56.2 176.6 59v0.3h15c68.9 0 135.1-20.5 191.6-59.3 52.6-36.1 93.6-85.7 118.9-143.9 20-2.7 38.4-12 52.6-26.6 16.6-17.1 25.7-39.6 25.7-63.4 0-19.3-6.1-37.5-16.6-52.4z m-72.3 113.2l-9.8 0.3-3.7 9.1c-47 116.2-157.8 191.6-282.9 193h-3.4c-126.5 0-238.9-75.7-286.3-193l-3.7-9.1-9.8-0.3c-33.1-0.9-59-27.6-59-60.8 0-18.7 8.5-35.9 22.4-47.2l-3.9-11.7c-0.2-1.7-0.6-3.4-1.4-5.1-0.4-0.8-0.7-1.6-1.1-2.3l-3.6-10.7c-0.2 0.1-0.5 0.3-0.7 0.5-7.1-18.5-10.8-37.1-10.8-47.8 0-104.7 45.9-203.6 125.7-271.3 50.9-36 110.7-57.9 172.8-63.3h0.2c14.7-1.5 56.8-4.6 74.9-0.9L537 152l2.5-15.5c1.4-8.7-0.4-18.1-3.4-26.9 10.2 4.4 17.4 9.3 24.1 14.8 1.6 1.7 7.6 8.3 11.2 15.9l11.6 24.6 14-21.9c4.6-4.4 20.9-15.2 38.4-23-2.6 6.6-4.5 12.4-5.5 15.6l-5.4 16.9 17.6 2.5c59.9 8.4 118.9 51.2 162.2 117.4 51.2 78.7 69.2 174.9 49.2 260.1-0.2-0.1-0.4-0.3-0.6-0.4l-0.4 0.8-11.4 27.5c14.6 11.3 23.6 28.9 23.6 48.1 0 33.3-25.9 60-59 60.9z" fill="#00A29A" p-id="3950"></path><path d="M195.2 610.5l-12.9-10.1c-69.1-54.2 21.7-196.7 25.6-202.8 2.4-3.7 7.3-4.8 11.1-2.4 3.7 2.4 4.8 7.3 2.4 11.1-0.2 0.3-22.7 35.3-37 75.8-10.6 29.9-18.6 68-3.4 93 2.4-16.7 8.2-42.8 22.3-72 13.8-28.8 32.9-54.6 56.5-76.9 29.5-27.7 66.3-49.8 109.3-65.6l15.5-5.7-50.1 152.8 166.3-169.3-9.3 164.5 113.3-128.8 4.8 1.2c16.2 4.2 71.4 25.2 127.1 120.5 6.9-19.7 17.2-54.6 16.4-85.3l-0.3-10.7 10.4 2.8c2.7 0.7 65.7 19.1 110.6 138.1 1.6 4.1-0.5 8.7-4.7 10.3-4.1 1.6-8.7-0.5-10.3-4.7-21.8-57.9-47.9-89.8-65.9-106.3-9.6-8.8-17.9-14.3-24-17.6-2.4 45.6-22.5 93.1-23.4 95.2l-6.5 15.2-7.9-14.5c-51.2-94.7-103.1-120-120.9-126.2L473 548.1l9.5-168.3L298 567.6l60.9-185.8C276.8 416.4 236.8 470 217.6 510c-22.1 45.8-22.4 83.7-22.4 84.1v16.4z" fill="#00A29A" p-id="3951"></path></svg>