<?xml version="1.0" standalone="no"?><!DOCTYPE svg PUBLIC "-//W3C//DTD SVG 1.1//EN" "http://www.w3.org/Graphics/SVG/1.1/DTD/svg11.dtd"><svg t="1660105573756" class="icon" viewBox="0 0 1024 1024" version="1.1" xmlns="http://www.w3.org/2000/svg" p-id="2803" xmlns:xlink="http://www.w3.org/1999/xlink" width="200" height="200"><defs><style type="text/css">@font-face { font-family: feedback-iconfont; src: url("//at.alicdn.com/t/font_1031158_u69w8yhxdu.woff2?t=1630033759944") format("woff2"), url("//at.alicdn.com/t/font_1031158_u69w8yhxdu.woff?t=1630033759944") format("woff"), url("//at.alicdn.com/t/font_1031158_u69w8yhxdu.ttf?t=1630033759944") format("truetype"); }
</style></defs><path d="M259.8 701.7c-50.3 0-91.1-40.9-91.1-91.1 0-20.8 7.2-41.1 20.2-57.2 6.4-7.9 18-9.2 26-2.8 7.9 6.4 9.2 18 2.8 26-7.9 9.7-12 21.5-12 34 0 29.9 24.3 54.2 54.2 54.2 10 0 19.7-2.7 28.1-7.8 8.7-5.3 20.1-2.5 25.4 6.2 5.3 8.7 2.5 20.1-6.2 25.4-14.3 8.5-30.7 13.1-47.4 13.1z" fill="#00B39B" p-id="2804"></path><path d="M247.4 584.7c-9.6 0-18.8-1.8-27.4-5.3-37.8 1.3-74.8-23.5-107.3-72-23.6-35.1-37-70.5-37.6-72-2.9-7.8-0.2-16.6 6.5-21.5 6.8-4.9 16-4.5 22.5 0.8 17.8 14.6 44 29.3 68.3 16.6 18.2-9.5 29.1-31.7 27.8-46.3-3.7-43.3 8.7-85.7 9.2-87.4 0.1-0.4 0.3-0.8 0.4-1.2 13.8-37 35.5-59.2 64.5-65.8 37.9-8.7 76.9 12.4 101 29.5 11.5-31.4 37.6-84 90.8-113.9 49.5-27.8 110.2-29.3 180.2-4.4 3.1 1.1 76.1 27.9 110.4 97 12.1 24.3 31 53.4 46.1 70.6 1.3 1.5 3 3.6 5.2 6.4 28.2 35.3 70.8 79.5 114.8 56.2 7.4-3.9 16.4-2.4 22.1 3.7 5.7 6.1 6.6 15.2 2.2 22.3-2.1 3.4-52.6 84-140.7 104-51.5 11.7-104.6 0.4-157.8-33.8-11-7.1-20.7-14.9-29-23.2-22.8-23.1-83-66-148-62.8-41.2 2-78.5 22.4-111 60.7L357 488c0 0.3-0.1 0.6-0.1 0.9-4 31.7-29.6 65.2-63.7 83.4-15.4 8.3-31 12.4-45.8 12.4z m-24.2-42.5c3.6 0 6.6 1 8.6 2 16 8 34.6 0.6 44.3-4.6 23.1-12.3 41.7-35.4 44.4-55l4-50.4c0.3-3.7 1.7-7.3 4.1-10.2 40.3-49.6 87.9-76.1 141.5-78.7 97.6-4.7 173 70.6 176.1 73.8 6.3 6.4 13.9 12.5 22.6 18.1 44.4 28.5 87.9 38.2 129.4 28.9 37.5-8.5 67.5-31.2 87.8-51.3-34.4-4.8-70-30.2-106.6-75.9-1.7-2.2-3.1-3.9-4.2-5.1-19.8-22.7-40.1-55.8-51.4-78.5-27.8-56-89.1-78.5-89.7-78.7-59.4-21.1-109.7-20.5-149.5 1.7-57.9 32.4-77.4 101.9-80.3 113.4 0.2 4.8-1.5 9.6-5.1 13.4-7 7.4-18.7 7.7-26.1 0.6-14.2-13.4-58.1-46.6-90.5-39.1-15.9 3.7-28.7 17.8-37.9 42.1-1.3 4.8-10.5 39.5-7.7 73.3 2.2 26.6-13.6 64.4-47.4 82.1-11.8 6.2-31.3 12.6-56.4 6.9 21 35.8 52.3 73.6 86.6 71.6 1.2-0.3 2.3-0.4 3.4-0.4z" fill="#00B39B" p-id="2805"></path><path d="M537.5 899.9c-12.1 0-24.3-0.9-36.5-2.9-112.7-17.8-196.7-109.3-214.2-233.1-1.4-10.1 5.6-19.4 15.7-20.9 10.1-1.4 19.4 5.6 20.9 15.7 15.1 107.4 87.1 186.6 183.3 201.8 123.4 19.5 242.2-80.7 264.7-223.3 7.7-48.9 3.3-98.3-12.6-143-3.4-9.6 1.6-20.2 11.2-23.6 9.6-3.4 20.2 1.6 23.6 11.2 18 50.5 23 106.3 14.3 161.2-23.5 148.9-140.7 256.9-270.4 256.9z" fill="#00B39B" p-id="2806"></path><path d="M584.9 758.4c-3.3 0-6.6-0.1-9.9-0.2-13.7-0.5-27.3-1.8-40.6-4.2-10-1.7-16.8-11.3-15-21.4 1.7-10 11.3-16.8 21.4-15 11.6 2 23.5 3.2 35.5 3.6 16.8 0.6 33.5-0.5 49.7-3.2 10.1-1.6 19.6 5.2 21.2 15.2 1.6 10.1-5.2 19.6-15.2 21.2-15.5 2.7-31.3 4-47.1 4zM500.1 616.2c-13.6 0-24.6-11-24.6-24.6v-39.9c0-13.6 11-24.6 24.6-24.6 13.6 0 24.6 11 24.6 24.6v39.9c0 13.5-11 24.6-24.6 24.6zM674 616.2c-13.6 0-24.6-11-24.6-24.6v-39.9c0-13.6 11-24.6 24.6-24.6 13.6 0 24.6 11 24.6 24.6v39.9c0 13.5-11 24.6-24.6 24.6z" fill="#00B39B" p-id="2807"></path><path d="M474.3 707.1c-68.9 0-124.9-56-124.9-124.9s56-124.9 124.9-124.9 124.9 56 124.9 124.9-56 124.9-124.9 124.9z m0-212.8c-48.5 0-87.9 39.5-87.9 87.9 0 48.5 39.5 87.9 87.9 87.9s87.9-39.5 87.9-87.9c0.1-48.4-39.4-87.9-87.9-87.9z" fill="#00B39B" p-id="2808"></path><path d="M687.2 708.2c-68.9 0-124.9-56-124.9-124.9s56-124.9 124.9-124.9S812 514.5 812 583.4s-56 124.8-124.8 124.8z m0-212.8c-48.5 0-87.9 39.5-87.9 87.9 0 48.5 39.5 87.9 87.9 87.9 48.5 0 87.9-39.5 87.9-87.9 0-48.4-39.5-87.9-87.9-87.9z" fill="#00B39B" p-id="2809"></path></svg>