<?xml version="1.0" standalone="no"?><!DOCTYPE svg PUBLIC "-//W3C//DTD SVG 1.1//EN" "http://www.w3.org/Graphics/SVG/1.1/DTD/svg11.dtd"><svg t="1660021138715" class="icon" viewBox="0 0 1024 1024" version="1.1" xmlns="http://www.w3.org/2000/svg" p-id="8161" xmlns:xlink="http://www.w3.org/1999/xlink" width="200" height="200"><defs><style type="text/css">@font-face { font-family: feedback-iconfont; src: url("//at.alicdn.com/t/font_1031158_u69w8yhxdu.woff2?t=1630033759944") format("woff2"), url("//at.alicdn.com/t/font_1031158_u69w8yhxdu.woff?t=1630033759944") format("woff"), url("//at.alicdn.com/t/font_1031158_u69w8yhxdu.ttf?t=1630033759944") format("truetype"); }
</style></defs><path d="M512 72.239859c59.417284 0 117.028571 11.558377 171.208466 34.494533 52.373898 22.213757 99.329806 53.818695 139.784127 94.273015 40.454321 40.454321 72.059259 87.410229 94.273015 139.784127 22.936155 54.179894 34.494533 111.791182 34.494533 171.208466s-11.558377 117.028571-34.494533 171.208466c-22.213757 52.373898-53.818695 99.329806-94.273015 139.784127-40.454321 40.454321-87.410229 72.059259-139.784127 94.273015-54.179894 22.936155-111.791182 34.494533-171.208466 34.494533s-117.028571-11.558377-171.208466-34.494533c-52.373898-22.213757-99.329806-53.818695-139.784127-94.273015-40.454321-40.454321-72.059259-87.410229-94.273015-139.784127-22.936155-54.179894-34.494533-111.791182-34.494533-171.208466s11.558377-117.028571 34.494533-171.208466c22.213757-52.373898 53.818695-99.329806 94.273015-139.784127 40.454321-40.454321 87.410229-72.059259 139.784127-94.273015 54.179894-22.936155 111.791182-34.494533 171.208466-34.494533m0-72.239859C229.180952 0 0 229.180952 0 512S229.180952 1024 512 1024s511.8194-229.361552 511.8194-512S794.638448 0 512 0z" fill="#2c2c2c" p-id="8162"></path><path d="M723.662787 712.646208c-7.765785 0-15.35097 2.708995-21.491358 7.585185-53.999295 42.621517-120.279365 65.738272-190.171429 65.738272s-136.172134-23.116755-190.171429-65.738272c-6.140388-4.87619-13.725573-7.585185-21.491358-7.585185-32.507937 0-46.955908 41.17672-21.310758 61.223281 64.112875 50.567901 145.021517 80.728042 232.973545 80.728042s168.86067-30.160141 232.973545-80.728042c25.46455-20.046561 11.197178-61.22328-21.310758-61.223281z" fill="#2c2c2c" p-id="8163"></path></svg>