<?xml version="1.0" standalone="no"?><!DOCTYPE svg PUBLIC "-//W3C//DTD SVG 1.1//EN" "http://www.w3.org/Graphics/SVG/1.1/DTD/svg11.dtd"><svg t="1660031576833" class="icon" viewBox="0 0 1024 1024" version="1.1" xmlns="http://www.w3.org/2000/svg" p-id="14124" xmlns:xlink="http://www.w3.org/1999/xlink" width="200" height="200"><defs><style type="text/css">@font-face { font-family: feedback-iconfont; src: url("//at.alicdn.com/t/font_1031158_u69w8yhxdu.woff2?t=1630033759944") format("woff2"), url("//at.alicdn.com/t/font_1031158_u69w8yhxdu.woff?t=1630033759944") format("woff"), url("//at.alicdn.com/t/font_1031158_u69w8yhxdu.ttf?t=1630033759944") format("truetype"); }
</style></defs><path d="M546.204774 729.333856H103.703401a70.502942 70.502942 0 0 1-70.30208-70.302079V70.302079A70.302079 70.302079 0 0 1 103.703401 0h441.898783A70.302079 70.302079 0 0 1 615.904264 70.302079v588.729698a70.502942 70.502942 0 0 1-69.69949 70.302079zM103.703401 40.172617A30.129463 30.129463 0 0 0 73.573938 70.302079v588.729698a30.129463 30.129463 0 0 0 30.129463 30.129463h441.898783a30.330326 30.330326 0 0 0 30.129463-30.129463V70.302079A30.129463 30.129463 0 0 0 546.204774 40.172617zM905.749693 703.020792h-92.397018a20.086308 20.086308 0 0 1-20.086309-20.086308v-40.172617a177.562966 177.562966 0 0 1-64.677912-140.604158 180.776775 180.776775 0 0 1 64.677912-144.018831V319.372303a20.086308 20.086308 0 0 1 20.086309-20.086308h92.397018a20.086308 20.086308 0 0 1 20.086309 20.086308v40.172617a177.562966 177.562966 0 0 1 64.677912 142.612789 177.562966 177.562966 0 0 1-64.677912 140.604158v40.172617a20.086308 20.086308 0 0 1-20.086309 20.086308z m-72.31071-40.172616h52.224402v-30.129463a20.086308 20.086308 0 0 1 9.842291-17.274225A132.569635 132.569635 0 0 0 950.341298 502.157709a132.770498 132.770498 0 0 0-54.835622-114.291095 20.086308 20.086308 0 0 1-9.842291-17.073362V339.458611h-52.224402v28.321695a20.086308 20.086308 0 0 1-9.641428 17.274225c-32.941546 20.086308-55.036485 66.284818-55.036485 116.098862a132.368772 132.368772 0 0 0 55.036485 114.090232 20.086308 20.086308 0 0 1 9.641428 17.274225z" p-id="14125"></path><path d="M878.633177 701.815614v183.588858a98.422911 98.422911 0 0 1-98.422911 98.422911H404.395437a98.422911 98.422911 0 0 1-98.422911-98.422911v-157.275794h37.963122v138.193801a80.345233 80.345233 0 0 0 79.340918 79.340918h337.851707a80.345233 80.345233 0 0 0 80.345233-79.340918v-164.506865h38.163986m0-40.172617h-38.163986a40.172617 40.172617 0 0 0-40.172616 40.172617v164.506865a40.172617 40.172617 0 0 1-40.172617 39.168302H423.276566a40.172617 40.172617 0 0 1-39.168301-39.168302v-138.193801a40.172617 40.172617 0 0 0-40.172617-40.172617h-37.963122a40.172617 40.172617 0 0 0-40.172617 40.172617v157.275794a138.595528 138.595528 0 0 0 138.595528 138.595528h375.814829a138.796391 138.796391 0 0 0 138.595528-138.595528v-183.588858a40.172617 40.172617 0 0 0-40.172617-40.172617z" p-id="14126"></path><path d="M241.09375 631.312672a30.531189 30.531189 0 0 1-23.099255-10.244018l-78.537466-85.567673a78.13574 78.13574 0 0 1 0-106.457435 79.140055 79.140055 0 0 1 58.049432-25.710474 80.345233 80.345233 0 0 1 43.587289 13.256963 78.738329 78.738329 0 0 1 43.386426-13.256963 78.939192 78.939192 0 0 1 58.250294 132.167909l-78.537466 85.567673a30.531189 30.531189 0 0 1-23.099254 10.244018z m-43.587289-187.806983a38.766575 38.766575 0 0 0-28.522558 12.654374 38.364849 38.364849 0 0 0 0 52.224401l72.109847 78.537466 71.908984-78.537466a38.364849 38.364849 0 0 0 0-52.224401 38.565712 38.565712 0 0 0-28.522558-12.654374 38.766575 38.766575 0 0 0-28.522558 12.654374 20.086308 20.086308 0 0 1-14.462142 6.628482 20.086308 20.086308 0 0 1-14.663005-5.82503 40.172617 40.172617 0 0 0-29.32601-13.457826zM503.420937 186.400942H279.458599a20.086308 20.086308 0 0 1 0-40.172617H503.420937a20.086308 20.086308 0 1 1 0 40.172617zM503.420937 325.799922H279.458599a20.086308 20.086308 0 0 1 0-40.172617H503.420937a20.086308 20.086308 0 0 1 0 40.172617z" fill="#24D1AF" p-id="14127"></path></svg>