<?xml version="1.0" standalone="no"?><!DOCTYPE svg PUBLIC "-//W3C//DTD SVG 1.1//EN" "http://www.w3.org/Graphics/SVG/1.1/DTD/svg11.dtd"><svg t="1660032833776" class="icon" viewBox="0 0 1024 1024" version="1.1" xmlns="http://www.w3.org/2000/svg" p-id="16777" xmlns:xlink="http://www.w3.org/1999/xlink" width="200" height="200"><defs><style type="text/css">@font-face { font-family: feedback-iconfont; src: url("//at.alicdn.com/t/font_1031158_u69w8yhxdu.woff2?t=1630033759944") format("woff2"), url("//at.alicdn.com/t/font_1031158_u69w8yhxdu.woff?t=1630033759944") format("woff"), url("//at.alicdn.com/t/font_1031158_u69w8yhxdu.ttf?t=1630033759944") format("truetype"); }
</style></defs><path d="M372.031651 612.939262a33.4372 33.4372 0 0 1-33.437201-33.4372v-418.820907C338.70857 72.123927 407.751254 0 492.542516 0s153.948066 72.123927 153.948067 160.681155v405.468851a33.4372 33.4372 0 0 1-66.874401 0V160.681155c0-51.696423-39.143207-93.806754-87.073666-93.806754s-86.959545 42.110331-86.959545 93.806754v418.820907A33.4372 33.4372 0 0 1 372.031651 612.939262zM687.345592 149.0409h101.566923v61.967236h-101.566923zM687.345592 242.733534h101.566923v61.967235h-101.566923zM687.345592 335.170846h101.566923v61.967235h-101.566923z" fill="#444444" p-id="16778"></path><path d="M492.542516 1024A257.455032 257.455032 0 0 1 349.207623 553.02619a33.4372 33.4372 0 0 1 37.431405 55.348267 190.580631 190.580631 0 1 0 212.605818 0 33.4372 33.4372 0 0 1 37.317285-55.576508 257.569152 257.569152 0 0 1-144.019615 471.202051z" fill="#444444" p-id="16779"></path><path d="M550.401427 636.333891V490.716594a58.429511 58.429511 0 0 0-56.489469-61.054274A58.429511 58.429511 0 0 0 437.42249 490.716594v144.932576a144.590215 144.590215 0 1 0 112.978937 1.141201z" fill="#444444" p-id="16780"></path></svg>