<?xml version="1.0" standalone="no"?><!DOCTYPE svg PUBLIC "-//W3C//DTD SVG 1.1//EN" "http://www.w3.org/Graphics/SVG/1.1/DTD/svg11.dtd"><svg t="1660031530935" class="icon" viewBox="0 0 1024 1024" version="1.1" xmlns="http://www.w3.org/2000/svg" p-id="13316" xmlns:xlink="http://www.w3.org/1999/xlink" width="200" height="200"><defs><style type="text/css">@font-face { font-family: feedback-iconfont; src: url("//at.alicdn.com/t/font_1031158_u69w8yhxdu.woff2?t=1630033759944") format("woff2"), url("//at.alicdn.com/t/font_1031158_u69w8yhxdu.woff?t=1630033759944") format("woff"), url("//at.alicdn.com/t/font_1031158_u69w8yhxdu.ttf?t=1630033759944") format("truetype"); }
</style></defs><path d="M512 773.12m-82.944 0a82.944 82.944 0 1 0 165.888 0 82.944 82.944 0 1 0-165.888 0Z" fill="#EFD152" p-id="13317"></path><path d="M512 750.592c-26.624 0-48.128-21.504-48.128-48.128V410.624c0-26.624 21.504-48.128 48.128-48.128s48.128 21.504 48.128 48.128v291.84c0 26.624-21.504 48.128-48.128 48.128z" fill="#EFD152" p-id="13318"></path><path d="M254.976 900.096c-72.704-2.048-132.096-61.44-132.096-135.168V259.072C122.88 184.32 184.32 122.88 259.072 122.88h32.768V31.744h-32.768c-124.928 0-227.328 102.4-227.328 227.328v504.832c0 123.904 99.328 224.256 223.232 226.304v-90.112zM764.928 31.744h-32.768V122.88h32.768C839.68 122.88 901.12 184.32 901.12 259.072v504.832c0 73.728-58.368 133.12-132.096 136.192v91.136c122.88-2.048 223.232-103.424 223.232-226.304V259.072c0-124.928-102.4-227.328-227.328-227.328zM686.08 620.544V198.656c0-96.256-77.824-174.08-174.08-174.08s-174.08 77.824-174.08 174.08v105.472h39.936c8.192 0 14.336 6.144 14.336 14.336 0 8.192-6.144 14.336-14.336 14.336H337.92v53.248h39.936c8.192 0 14.336 6.144 14.336 14.336 0 8.192-6.144 14.336-14.336 14.336H337.92v53.248h39.936c8.192 0 14.336 6.144 14.336 14.336s-6.144 14.336-14.336 14.336H337.92v124.928c-35.84 40.96-55.296 93.184-55.296 148.48 0 125.952 102.4 229.376 228.352 229.376s228.352-102.4 228.352-229.376c1.024-55.296-18.432-107.52-53.248-149.504z m-174.08 286.72c-75.776 0-138.24-61.44-138.24-138.24 0-36.864 14.336-71.68 41.984-98.304l13.312-13.312V198.656c0-46.08 36.864-82.944 82.944-82.944s82.944 36.864 82.944 82.944v458.752l13.312 13.312c26.624 26.624 41.984 61.44 41.984 98.304 0 76.8-62.464 138.24-138.24 138.24z" fill="#009F72" p-id="13319"></path></svg>